<svg xmlns="http://www.w3.org/2000/svg" viewBox="0 0 94.55 125"><defs><style>.cls-1{fill:#8fbf32;stroke:#353535;stroke-miterlimit:10;}</style></defs><title>Asset 1</title><g id="Layer_2" data-name="Layer 2"><g id="Layer_1-2" data-name="Layer 1"><path class="cls-1" d="M47.22.5A46.69,46.69,0,0,0,.5,47.22c0,13.44,6.72,25.62,13.33,36.85a196,196,0,0,0,29,38.53,6.21,6.21,0,0,0,8.92,0A180.24,180.24,0,0,0,77.67,90.06c7.87-12.71,16.38-27.41,16.38-42.84A46.92,46.92,0,0,0,47.22.5Zm0,73.81A28.35,28.35,0,1,1,75.57,46,28.36,28.36,0,0,1,47.22,74.31Z"/></g></g></svg>